<svg width="180" height="180" viewBox="0 0 24 24" xmlns="http://www.w3.org/2000/svg"><defs><linearGradient id="sq" x1="0" y1="0" x2="0" y2="1"><stop offset="0" stop-color="#1eb155"/><stop offset="1" stop-color="#14803d"/></linearGradient><linearGradient id="mt" x1="0" y1="0" x2="0" y2="1"><stop offset="0" stop-color="#f2c98a"/><stop offset="0.5" stop-color="#c47d35"/><stop offset="1" stop-color="#8a531f"/></linearGradient></defs><rect width="24" height="24" rx="5.5" fill="url(#sq)"/><path transform="translate(1.44 1.44) scale(0.88)" fill="url(#mt)" d="M19 5h-2V3H7v2H5C3.9 5 3 5.9 3 7v1c0 2.55 1.92 4.63 4.39 4.94A5.01 5.01 0 0 0 11 16.9V19H7v2h10v-2h-4v-2.1a5.01 5.01 0 0 0 3.61-3.96C19.08 12.63 21 10.55 21 8V7c0-1.1-.9-2-2-2zM5 8V7h2v3.82C5.84 10.4 5 9.3 5 8zm14 0c0 1.3-.84 2.4-2 2.82V7h2v1z"/></svg>
