<svg width="180" height="180" viewBox="0 0 180 180" xmlns="http://www.w3.org/2000/svg"><defs><linearGradient id="g" x1="0" y1="0" x2="0" y2="1"><stop offset="0" stop-color="#1eb155"/><stop offset="1" stop-color="#14803d"/></linearGradient><radialGradient id="bg" cx="0.38" cy="0.30" r="0.9"><stop offset="0" stop-color="#ffffff"/><stop offset="1" stop-color="#dfe6ee"/></radialGradient></defs><rect width="180" height="180" rx="40" fill="url(#g)"/><circle cx="90" cy="90" r="58" fill="url(#bg)"/><clipPath id="cc"><circle cx="90" cy="90" r="58"/></clipPath><g clip-path="url(#cc)"><line x1="90.00" y1="70.00" x2="90.00" y2="32.00" stroke="#0b1220" stroke-width="2.4" stroke-linecap="round"/><line x1="109.02" y1="83.82" x2="145.16" y2="72.08" stroke="#0b1220" stroke-width="2.4" stroke-linecap="round"/><line x1="101.76" y1="106.18" x2="124.09" y2="136.92" stroke="#0b1220" stroke-width="2.4" stroke-linecap="round"/><line x1="78.24" y1="106.18" x2="55.91" y2="136.92" stroke="#0b1220" stroke-width="2.4" stroke-linecap="round"/><line x1="70.98" y1="83.82" x2="34.84" y2="72.08" stroke="#0b1220" stroke-width="2.4" stroke-linecap="round"/><polygon points="108.22,64.92 102.41,47.03 117.63,35.98 132.84,47.03 127.03,64.92" fill="#0b1220"/><polygon points="119.48,99.58 134.70,88.52 149.92,99.58 144.10,117.47 125.30,117.47" fill="#0b1220"/><polygon points="90.00,121.00 105.22,132.06 99.40,149.94 80.60,149.94 74.78,132.06" fill="#0b1220"/><polygon points="60.52,99.58 54.70,117.47 35.90,117.47 30.08,99.58 45.30,88.52" fill="#0b1220"/><polygon points="71.78,64.92 52.97,64.92 47.16,47.03 62.37,35.98 77.59,47.03" fill="#0b1220"/><polygon points="90.00,70.00 109.02,83.82 101.76,106.18 78.24,106.18 70.98,83.82" fill="#0b1220"/></g><circle cx="90" cy="90" r="58" fill="none" stroke="#0b1220" stroke-width="1.5" stroke-opacity="0.22"/></svg>